<svg xmlns="http://www.w3.org/2000/svg" width="50" height="50" viewBox="0 0 50 50" fill="var(--color)" id="bag">
  <path d="M0 17.5502V41.8636C0 43.1886 1.08408 44.2727 2.40908 44.2727H7.35361V15.1472H2.40908C1.08408 15.1472 0 16.2252 0 17.5502Z" fill="var(--color)"/>
  <path d="M47.5969 15.1472H42.6523V44.2727H47.5969C48.9158 44.2727 49.9999 43.1886 49.9999 41.8636V17.5502C49.9999 16.2252 48.9158 15.1472 47.5969 15.1472Z" fill="var(--color)"/>
  <path d="M34.9379 7.97075C34.9379 6.73364 33.9316 5.72729 32.6948 5.72729H17.3071C16.0696 5.72729 15.0633 6.73364 15.0633 7.97075V15.1471H12.1238V44.2726H37.8766V15.1471H34.9381V7.97075H34.9379ZM19.2791 9.94312H30.7221V15.1471H19.2791V9.94312Z" fill="var(--color)"/>
</svg>