<svg xmlns="http://www.w3.org/2000/svg" width="50" height="50" viewBox="0 0 50 50" fill="var(--color)" id="leather">
  <g clip-path="url(#clip0_2216_52)">
    <path d="M45.6005 36.07C40.4277 30.8973 40.4277 20.7435 45.6005 15.5708C45.7973 15.374 45.8664 15.0105 45.8114 14.737C45.2444 11.8997 43.657 9.38089 41.3424 7.64413C41.1156 7.4749 40.8187 7.43064 40.5536 7.52903C37.6279 8.60714 35.2291 8.59122 33.4265 7.48487C30.5157 5.69808 30.0022 1.58673 29.9971 1.54501C29.9612 1.24153 29.762 0.980549 29.4785 0.86711C26.5903 -0.289362 23.4094 -0.289362 20.5212 0.86711C20.2377 0.980549 20.0384 1.24143 20.0026 1.54501C19.9976 1.58673 19.4839 5.69808 16.5732 7.48487C14.7706 8.59132 12.3726 8.60626 9.44608 7.52903C9.18012 7.43064 8.88416 7.47481 8.65729 7.64413C6.34268 9.38089 4.75522 11.8997 4.17161 14.8171C4.1166 15.0906 4.20249 15.3732 4.39927 15.5708C9.57203 20.7435 9.57203 30.8973 4.39927 36.07C4.20249 36.2668 4.13331 36.6303 4.18832 36.9046C4.75532 39.7411 6.34278 42.26 8.65739 43.9968C8.87918 44.1636 9.17016 44.2068 9.4328 44.1169C9.87717 43.9626 20.3719 40.4366 24.2331 49.493C24.364 49.8007 24.6659 50 25.0002 50C25.3337 50 25.6355 49.8007 25.7664 49.493C29.6277 40.4357 40.1215 43.9618 40.5668 44.1169C40.8286 44.2069 41.1196 44.1636 41.3422 43.9968C43.6568 42.26 45.2442 39.7412 45.8278 36.8238C45.8831 36.5503 45.7973 36.2676 45.6005 36.07ZM8.03479 14.6703C7.85383 14.4352 7.81221 14.1209 7.92477 13.8465C8.27584 12.9911 8.76193 12.2048 9.37056 11.5078C9.57564 11.2727 9.89251 11.1718 10.1985 11.2477C10.8614 11.4112 11.515 11.5278 12.1396 11.5937C12.5974 11.6421 12.9292 12.0522 12.8808 12.5109C12.8333 12.9678 12.428 13.2938 11.9645 13.2521C11.4293 13.1962 10.8773 13.1062 10.317 12.9861C10.0635 13.3221 9.84336 13.6806 9.65743 14.0584C9.98338 14.5119 10.2919 14.9864 10.5771 15.4742C10.8088 15.8718 10.6746 16.3822 10.2769 16.6148C10.1452 16.6915 10.0001 16.7282 9.85753 16.7282C9.57076 16.7282 9.29141 16.5807 9.13635 16.3146C8.80102 15.74 8.42992 15.1864 8.03479 14.6703ZM12.2045 40.1371C11.5416 40.2138 10.8762 40.3231 10.2259 40.4614C10.1676 40.4731 10.11 40.4798 10.0525 40.4798C9.81737 40.4798 9.59059 40.3806 9.43045 40.2013C8.79349 39.4884 8.28736 38.6788 7.92467 37.7942C7.81211 37.519 7.85383 37.2055 8.03469 36.9704C8.42992 36.4543 8.80092 35.9007 9.13615 35.327C9.36792 34.9277 9.87903 34.7942 10.2768 35.0269C10.6745 35.2587 10.8087 35.769 10.577 36.1667C10.2918 36.6553 9.98328 37.1297 9.65733 37.5824C9.85743 37.9885 10.0967 38.3729 10.3744 38.7305C10.9164 38.6279 11.4658 38.5438 12.012 38.4813C12.4731 38.4262 12.8841 38.7555 12.9366 39.2133C12.9899 39.6703 12.6614 40.0846 12.2045 40.1371ZM13.1482 28.1258C13.0123 29.4148 12.7622 30.6863 12.4037 31.9044C12.2961 32.2671 11.9643 32.5022 11.6042 32.5022C11.5258 32.5022 11.4466 32.4914 11.3674 32.468C10.9264 32.338 10.6737 31.8743 10.8038 31.4325C11.134 30.3119 11.365 29.1405 11.4892 27.9515C11.5375 27.4937 11.9403 27.1635 12.4063 27.2094C12.864 27.257 13.1958 27.6672 13.1482 28.1258ZM12.4062 24.4313C12.3762 24.4347 12.347 24.4363 12.3178 24.4363C11.8968 24.4363 11.5349 24.1178 11.4891 23.6892C11.364 22.4995 11.133 21.328 10.8029 20.2082C10.6728 19.7663 10.9254 19.3027 11.3673 19.1735C11.8084 19.0409 12.2728 19.2952 12.4028 19.7372C12.7613 20.9536 13.0123 22.2251 13.1482 23.5149C13.1958 23.9728 12.864 24.383 12.4062 24.4313ZM20.498 40.2213C20.3821 40.5724 20.0561 40.7941 19.7059 40.7941C19.62 40.7941 19.5317 40.7807 19.4449 40.7516C18.4344 40.4189 17.348 40.1938 16.2157 40.0838C15.7571 40.0396 15.4219 39.6319 15.4662 39.1733C15.5103 38.7156 15.9189 38.3762 16.3766 38.4246C17.6323 38.5463 18.8395 38.7965 19.9669 39.1683C20.4046 39.3126 20.6422 39.7836 20.498 40.2213ZM20.6873 10.6474C19.6025 11.6154 18.3611 12.3316 16.9987 12.7777C16.9128 12.8053 16.8253 12.8186 16.7394 12.8186C16.3883 12.8186 16.0624 12.5951 15.9473 12.2432C15.8038 11.8064 16.0431 11.3352 16.4809 11.1918C17.6232 10.8183 18.6645 10.2172 19.5775 9.40337C19.9202 9.09568 20.448 9.12568 20.7548 9.4701C21.0608 9.81354 21.0308 10.3406 20.6873 10.6474ZM27.0681 42.5301C26.5462 42.9103 26.0501 43.338 25.5914 43.7999C25.4355 43.9575 25.2221 44.0467 25.0003 44.0467C24.7777 44.0467 24.5642 43.9575 24.4083 43.7999C23.9498 43.338 23.4536 42.9103 22.9316 42.5301C22.5598 42.2583 22.4789 41.7372 22.7499 41.3644C23.0217 40.9934 23.5437 40.9116 23.9156 41.1827C24.2891 41.4562 24.6526 41.7505 25.0003 42.0624C25.348 41.7506 25.7106 41.4562 26.0842 41.1827C26.4561 40.9117 26.978 40.9934 27.2498 41.3644C27.5209 41.7372 27.44 42.2583 27.0681 42.5301ZM27.4475 6.98373C27.0322 7.18129 26.5345 7.00376 26.3377 6.58684C26.101 6.08745 25.89 5.57048 25.7082 5.04188C25.2396 4.99605 24.7602 4.99605 24.2916 5.04188C24.1099 5.57048 23.8989 6.08823 23.6621 6.58684C23.5195 6.88787 23.2202 7.06375 22.9084 7.06375C22.7883 7.06375 22.6666 7.03786 22.5516 6.98373C22.1355 6.78616 21.9579 6.28922 22.1547 5.87318C22.4331 5.28703 22.6716 4.67088 22.8633 4.04301C22.9551 3.74197 23.2093 3.51861 23.5195 3.46516C24.4875 3.29838 25.5106 3.29838 26.4803 3.46516C26.7904 3.51851 27.0448 3.74197 27.1365 4.04301C27.3283 4.67088 27.5667 5.28615 27.8444 5.87318C28.0412 6.28922 27.8644 6.78694 27.4475 6.98373ZM29.2477 9.47342C29.5537 9.1291 30.0798 9.0991 30.425 9.40591C31.3379 10.2197 32.3802 10.8208 33.5224 11.1935C33.9601 11.3369 34.1994 11.8072 34.056 12.2449C33.9418 12.5968 33.6149 12.8202 33.2639 12.8202C33.178 12.8202 33.0913 12.8068 33.0054 12.7794C31.6422 12.3341 30.4015 11.6179 29.3152 10.6507C28.9717 10.3439 28.9417 9.81696 29.2477 9.47342ZM33.7876 40.083C32.6545 40.193 31.5673 40.4181 30.5576 40.7508C30.4708 40.78 30.3825 40.7933 30.2966 40.7933C29.9464 40.7933 29.6203 40.5715 29.5045 40.2206C29.3602 39.7828 29.5979 39.3118 30.0356 39.1675C31.1629 38.7956 32.3701 38.5455 33.6259 38.4237C34.0861 38.377 34.4922 38.7147 34.5363 39.1724C34.5813 39.6311 34.2452 40.0387 33.7876 40.083ZM37.8605 11.5937C38.4859 11.5278 39.1388 11.4111 39.8007 11.2468C40.1051 11.1718 40.4235 11.2718 40.6295 11.5078C41.2381 12.204 41.7242 12.9911 42.0753 13.8465C42.1878 14.1208 42.1461 14.4352 41.9653 14.6703C41.57 15.1864 41.199 15.74 40.8638 16.3145C40.7087 16.5805 40.4294 16.7281 40.1426 16.7281C40 16.7281 39.855 16.6915 39.7232 16.6147C39.3256 16.3821 39.1913 15.8718 39.4231 15.4741C39.7082 14.9863 40.0168 14.5119 40.3427 14.0583C40.1568 13.6805 39.9366 13.322 39.6824 12.986C39.1238 13.1061 38.5719 13.1961 38.0357 13.252C37.573 13.2928 37.1669 12.9677 37.1185 12.5108C37.071 12.0523 37.4028 11.6421 37.8605 11.5937ZM36.8517 23.5158C36.9876 22.226 37.2378 20.9545 37.5962 19.7372C37.7272 19.2952 38.1932 19.0434 38.6326 19.1735C39.0737 19.3027 39.3264 19.7663 39.1963 20.2082C38.8661 21.3288 38.6352 22.5002 38.511 23.6892C38.4652 24.1178 38.1032 24.4363 37.6822 24.4363C37.653 24.4363 37.6239 24.4347 37.5938 24.4321C37.136 24.3839 36.8041 23.9736 36.8517 23.5158ZM37.5937 27.2095C38.0548 27.1628 38.4625 27.4938 38.5109 27.9516C38.636 29.1414 38.8669 30.3128 39.1971 31.4326C39.3271 31.8745 39.0746 32.3381 38.6326 32.4681C38.5543 32.4915 38.475 32.5023 38.3967 32.5023C38.0365 32.5023 37.7038 32.2672 37.5971 31.9045C37.2386 30.6872 36.9876 29.4166 36.8517 28.1267C36.8041 27.668 37.136 27.2578 37.5937 27.2095ZM42.0753 37.7943C41.7126 38.6789 41.2065 39.4885 40.5695 40.2014C40.4094 40.3807 40.1827 40.4799 39.9475 40.4799C39.8899 40.4799 39.8324 40.4732 39.7741 40.4615C39.1237 40.3231 38.4583 40.2139 37.7955 40.1372C37.3386 40.0846 37.0101 39.6703 37.0634 39.2134C37.1168 38.7556 37.5328 38.4246 37.988 38.4814C38.5341 38.5439 39.0836 38.6281 39.6256 38.7306C39.9033 38.3729 40.1426 37.9885 40.3427 37.5825C40.0168 37.1298 39.7082 36.6554 39.4231 36.1668C39.1913 35.7691 39.3256 35.2588 39.7232 35.027C40.1209 34.7952 40.6312 34.9286 40.8639 35.3271C41.199 35.9008 41.5701 36.4544 41.9653 36.9705C42.1461 37.2056 42.1878 37.5191 42.0753 37.7943Z" fill="var(--color)"/>
  </g>
  <defs>
    <clipPath id="clip0_2216_52">
      <rect width="50" height="50" fill="var(--color)"/>
    </clipPath>
  </defs>
</svg>