<svg xmlns="http://www.w3.org/2000/svg" width="50" height="50" viewBox="0 0 50 50" fill="var(--color)" id="plane">
  <g clip-path="url(#clip0_2216_56)">
    <path fill-rule="evenodd" clip-rule="evenodd" d="M6.76682 43.0299C6.77088 41.3901 7.70269 39.7869 9.22043 37.9925L0.443574 32.4423C-0.109812 32.2023 -0.0976048 31.8645 0.223847 31.4658L2.08338 29.8789C2.42111 29.6713 2.77919 29.5818 3.16574 29.6876L13.9974 31.5187L23.0225 21.7449L1.95318 7.49116C1.42014 7.17785 1.37538 6.82384 1.92469 6.41287L4.96424 3.98774L32.4301 11.7067L40.5437 3.03152C43.2658 0.675567 45.9107 -0.378306 47.9411 0.122182C49.0601 0.398875 49.4548 0.732534 49.8007 1.78234C50.4721 3.84126 49.4304 6.60818 46.9686 9.45649L38.2935 17.5701L46.0124 45.0359L43.5873 48.0755C43.1763 48.6207 42.8223 48.576 42.509 48.047L28.2512 26.9817L18.4774 36.0027L20.3085 46.8344C20.4143 47.2169 20.3288 47.575 20.1172 47.9168L18.5303 49.7763C18.1356 50.0978 17.7938 50.11 17.5538 49.5566L12.0036 40.7797C10.2011 42.3015 8.59787 43.2333 6.94992 43.2333C6.79937 43.2293 6.76682 43.1764 6.76682 43.0299Z" fill="var(--color)"/>
  </g>
  <defs>
    <clipPath id="clip0_2216_56">
      <rect width="50" height="50" fill="var(--color)"/>
    </clipPath>
  </defs>
</svg>