<svg xmlns="http://www.w3.org/2000/svg" width="50" height="50" viewBox="0 0 50 50" fill="var(--color)" id="shoes">
  <path d="M25.795 40.7125L1.43027 20.0314L0 21.7175L24.3682 42.4002L24.3717 42.4033C27.1411 44.7339 30.657 46.0166 34.2783 46.0174H49.895V43.8066H34.2783C31.1813 43.8065 28.1643 42.7076 25.795 40.7125Z" fill="var(--color)"/>
  <path d="M34.2783 41.5965C34.2783 41.5965 40.5011 41.5965 46.0273 41.5965C51.5533 41.5965 50.7246 36.07 47.1325 35.2416C44.7089 34.6822 41.5972 33.3964 41.5972 33.3964C40.369 32.9868 39.3633 32.0889 38.8197 30.9159C38.8197 30.9159 38.6852 30.6308 38.4595 30.1509L33.9484 31.5148C33.4554 31.664 32.9346 31.3857 32.7855 30.8928C32.6371 30.3998 32.915 29.8789 33.4079 29.7306L37.6587 28.4447C37.2932 27.6659 36.8694 26.761 36.4228 25.806L32.2069 27.0817C31.7138 27.231 31.193 26.9504 31.0439 26.459C30.8944 25.9659 31.1745 25.4451 31.6662 25.2961L35.6241 24.0991C35.2031 23.195 34.7842 22.2948 34.3962 21.4579L30.4651 22.6479C29.972 22.7963 29.4512 22.518 29.3018 22.0251C29.1538 21.532 29.4316 21.0112 29.9246 20.8629L33.6071 19.7486C33.0792 18.5996 32.6963 17.7481 32.5944 17.4838C32.1512 16.3316 31.178 13.1357 28.9572 14.9121C25.3057 17.8354 18.6445 16.9783 16.9247 13.7832C15.6355 11.3885 16.3726 8.80997 16.9247 6.7838C17.3667 5.16427 15.0822 2.63897 13.425 4.84971C12.2524 6.41212 2.37268 18.1111 2.37268 18.1111L27.2188 39.021C29.1954 40.6847 31.6952 41.5965 34.2783 41.5965Z" fill="var(--color)"/>
</svg>