<svg xmlns="http://www.w3.org/2000/svg" width="50" height="50" viewBox="0 0 50 50" fill="var(--color)" id="umbrella">
  <g clip-path="url(#clip0_2216_66)">
    <path fill-rule="evenodd" clip-rule="evenodd" d="M26.3265 1.99398C37.8906 2.58398 47.4365 10.8237 50 21.7531H49.9959L46.6878 25.6553L43.5059 21.7531H43.0745L39.7502 25.6756L36.5519 21.7531H35.7585L32.4504 25.6553L29.2684 21.7531H28.8493C28.8493 21.7734 28.8493 21.7938 28.8493 21.8141C28.8493 22.7337 28.068 23.5312 26.9368 23.9056V42.2161C26.9368 44.3564 26.062 46.3014 24.6541 47.7093C23.2463 49.1172 21.3013 49.992 19.161 49.992C17.0288 49.992 15.0879 49.1172 13.6759 47.7093L13.6719 47.7052L13.6678 47.7012C12.2599 46.2892 11.3851 44.3483 11.3851 42.2161V41.4959H14.7135V42.2161C14.7135 43.4409 15.214 44.5558 16.0156 45.3574L16.0238 45.3656C16.8254 46.1672 17.9403 46.6676 19.165 46.6676C20.3857 46.6676 21.4966 46.1671 22.3063 45.3574C23.112 44.5518 23.6165 43.4368 23.6165 42.2161V23.751C22.701 23.3359 22.0947 22.6239 22.0947 21.8141C22.0947 21.7938 22.0947 21.7734 22.0947 21.7531H20.752L17.57 25.6553L14.2619 21.7531H13.4684L10.2702 25.6756L6.9458 21.7531H6.51042L3.32845 25.6553L0.0203451 21.7531H0C2.54313 10.9092 11.9588 2.71012 23.4049 2.01025L24.9308 0.00830078L26.3265 1.99398Z" fill="var(--color)"/>
  </g>
  <defs>
    <clipPath id="clip0_2216_66">
      <rect width="50" height="50" fill="var(--color)"/>
    </clipPath>
  </defs>
</svg>